<svg xmlns="http://www.w3.org/2000/svg" width="4182" height="1547" fill="none"><path fill="#fff" d="M177.07 707.072c33.053-7.825 69.902 16.234 76.032 49.643l11.511 62.724c2.536 13.822-8.078 26.561-22.131 26.561H22.5C10.074 846 0 835.926 0 823.5v-56.711a22.5 22.5 0 0 1 17.316-21.895l159.754-37.822ZM759 823.5c0 12.426-10.074 22.5-22.5 22.5H507.263c-10.86 0-20.17-7.757-22.13-18.439l-52.355-285.31c-4.564-24.87 9.782-46.841 34.387-52.666l264.151-62.539C745.448 423.7 759 434.419 759 448.941V823.5ZM335.526 403.643c4.564 24.869-9.782 46.841-34.387 52.667L27.684 521.05C13.552 524.396 0 513.677 0 499.155V109.5C0 97.074 10.074 87 22.5 87h236.175c10.86 0 20.17 7.757 22.13 18.439l54.721 298.204ZM759 328.546a22.5 22.5 0 0 1-17.316 21.894l-264.153 62.539c-33.053 7.825-69.902-16.234-76.033-49.643l-45.834-249.775C353.128 99.739 363.742 87 377.795 87H736.5c12.426 0 22.5 10.074 22.5 22.5v219.046Zm533.5 426.946c-53.41 0-99.99-11.897-139.73-35.69-39.48-23.794-70.11-57.08-91.88-99.858-21.77-42.778-32.65-92.517-32.65-149.217 0-55.435 10.5-104.161 31.51-146.18 21.26-42.272 51.64-75.305 91.13-99.099 39.48-23.793 86.44-35.69 140.86-35.69 59.23 0 109.98 14.934 152.25 44.803 42.53 29.869 70.5 73.912 83.91 132.131l-100.99 23.541c-8.86-39.741-25.31-69.356-49.36-88.847-23.8-19.491-52.65-29.236-86.57-29.236-33.41 0-62.02 8.48-85.81 25.439-23.54 16.706-41.64 40.12-54.29 70.242-12.41 29.869-18.61 64.674-18.61 104.414 0 40.247 6.33 75.558 18.98 105.933 12.91 30.122 31.01 53.536 54.3 70.242 23.54 16.453 51.38 24.68 83.53 24.68 34.93 0 64.67-10.125 89.23-30.375 24.55-20.503 40.75-49.233 48.6-86.189l103.65 23.161c-14.93 56.7-43.53 100.237-85.81 130.612-42.27 30.122-93.02 45.183-152.25 45.183Zm431.76 0c-40.24 0-75.81-8.986-106.69-26.958-30.63-18.225-54.55-43.411-71.76-75.557-16.96-32.4-25.44-69.736-25.44-112.008 0-42.272 8.48-79.482 25.44-111.628 17.21-32.4 41.13-57.586 71.76-75.558 30.88-18.225 66.45-27.338 106.69-27.338 40.25 0 75.69 9.113 106.32 27.338 30.62 17.972 54.54 43.158 71.76 75.558 17.21 32.146 25.82 69.356 25.82 111.628 0 42.272-8.61 79.608-25.82 112.008-17.22 32.146-41.26 57.332-72.14 75.557-30.63 17.972-65.94 26.958-105.94 26.958Zm0-71.381c32.15 0 57.59-12.783 76.32-38.349 18.73-25.818 28.1-60.75 28.1-104.793 0-44.297-9.37-79.228-28.1-104.794-18.73-25.566-44.17-38.348-76.32-38.348-32.4 0-57.96 12.782-76.69 38.348-18.48 25.566-27.72 60.497-27.72 104.794 0 44.043 9.24 78.975 27.72 104.793 18.73 25.566 44.29 38.349 76.69 38.349ZM1950.62 746V335.937h89.98v67.585c11.14-22.781 27.47-41.26 48.98-55.435 21.77-14.428 47.21-21.642 76.32-21.642 28.1 0 52.02 7.214 71.76 21.642 20 14.175 34.81 34.805 44.43 61.89 14.42-27.085 33.03-47.715 55.81-61.89 22.78-14.428 48.09-21.642 75.94-21.642 40.5 0 71.88 14.428 94.16 43.285 22.53 28.856 33.79 69.862 33.79 123.018V746h-93.78V493.887c0-18.478-1.9-34.804-5.7-48.979-3.79-14.175-10.25-25.313-19.36-33.413-9.11-8.1-21.9-12.15-38.35-12.15-18.73 0-34.93 5.822-48.6 17.466-13.67 11.391-24.3 27.591-31.89 48.6-7.34 20.756-11.01 45.309-11.01 73.659V746h-93.79V493.887c0-18.478-1.89-34.804-5.69-48.979-3.8-14.175-10.25-25.313-19.37-33.413-9.11-8.1-21.64-12.15-37.58-12.15-18.74 0-35.06 5.696-48.98 17.086-13.67 11.391-24.3 27.591-31.9 48.6-7.59 20.756-11.39 45.563-11.39 74.419V746h-93.78Zm635.66 148.078V335.937h88.84v83.532l-1.52-6.075c12.91-29.869 31.64-51.764 56.2-65.686 24.55-14.175 51.38-21.263 80.49-21.263 34.17 0 63.79 8.607 88.85 25.819 25.31 17.213 44.93 41.892 58.85 74.039 13.92 32.147 20.88 70.622 20.88 115.425 0 44.297-7.08 82.519-21.26 114.666-13.92 31.893-33.54 56.447-58.85 73.659-25.31 16.96-55.18 25.439-89.61 25.439-28.85 0-55.68-6.834-80.49-20.503-24.55-13.922-43.92-36.703-58.09-68.344l8.73-1.898v229.331h-93.02Zm191.36-211.486c30.12 0 54.42-12.53 72.9-37.589 18.48-25.059 27.72-60.244 27.72-105.553 0-44.297-8.99-78.722-26.96-103.275-17.97-24.553-42.27-36.83-72.9-36.83-18.73 0-35.95 5.063-51.64 15.188-15.44 9.872-27.72 25.312-36.83 46.322-9.11 20.756-13.67 47.207-13.67 79.354 0 47.588 9.75 83.278 29.24 107.072 19.74 23.541 43.79 35.311 72.14 35.311Zm417.72 72.9c-40.25 0-75.82-8.986-106.7-26.958-30.62-18.225-54.55-43.411-71.76-75.557-16.96-32.4-25.44-69.736-25.44-112.008 0-42.272 8.48-79.482 25.44-111.628 17.21-32.4 41.14-57.586 71.76-75.558 30.88-18.225 66.45-27.338 106.7-27.338 40.24 0 75.68 9.113 106.31 27.338 30.63 17.972 54.55 43.158 71.76 75.558 17.21 32.146 25.82 69.356 25.82 111.628 0 42.272-8.61 79.608-25.82 112.008-17.21 32.146-41.26 57.332-72.14 75.557-30.63 17.972-65.94 26.958-105.93 26.958Zm0-71.381c32.14 0 57.58-12.783 76.31-38.349 18.73-25.818 28.1-60.75 28.1-104.793 0-44.297-9.37-79.228-28.1-104.794-18.73-25.566-44.17-38.348-76.31-38.348-32.4 0-57.97 12.782-76.7 38.348-18.48 25.566-27.72 60.497-27.72 104.794 0 44.043 9.24 78.975 27.72 104.793 18.73 25.566 44.3 38.349 76.7 38.349Zm382.78 71.381c-30.37 0-58.72-4.556-85.05-13.669-26.07-9.365-47.97-23.667-65.68-42.904-17.47-19.491-28.86-44.424-34.18-74.799l89.23-17.465c2.53 26.578 11.77 46.448 27.72 59.611 16.2 13.162 37.71 19.743 64.54 19.743 26.58 0 46.83-5.822 60.75-17.465 14.18-11.644 21.27-25.566 21.27-41.766 0-14.175-5.32-25.945-15.95-35.311-10.38-9.365-27.08-15.947-50.12-19.744l-42.14-7.214c-14.18-2.531-29.11-5.822-44.81-9.872-15.69-4.303-30.5-10.378-44.42-18.225-13.92-8.1-25.31-18.984-34.17-32.653-8.61-13.922-12.91-31.514-12.91-52.776 0-27.085 7.21-49.866 21.64-68.344 14.43-18.478 33.92-32.4 58.47-41.766 24.81-9.618 52.65-14.428 83.53-14.428 30.13 0 57.08 4.557 80.88 13.669 24.04 8.859 43.91 21.895 59.61 39.108 15.94 17.212 26.32 38.348 31.13 63.408l-90.36 18.225c-1.78-12.15-5.45-23.161-11.01-33.033-5.57-10.125-13.93-18.099-25.06-23.92-10.89-6.075-25.32-9.113-43.29-9.113-21.01 0-38.35 4.303-52.02 12.909-13.66 8.354-20.5 20.377-20.5 36.071 0 10.378 3.04 18.984 9.11 25.818 6.33 6.582 15.19 12.024 26.58 16.327 11.39 4.303 24.81 7.973 40.25 11.011l45.56 8.733c21.52 3.544 41.77 9.745 60.75 18.604 18.99 8.607 34.3 20.757 45.94 36.45 11.9 15.694 17.85 36.324 17.85 61.89 0 28.35-7.47 52.523-22.4 72.52-14.94 19.744-35.44 34.805-61.51 45.183-26.07 10.125-55.82 15.187-89.23 15.187Zm381.65 0c-39.74 0-74.93-8.733-105.55-26.198-30.63-17.466-54.68-42.272-72.15-74.419-17.46-32.147-26.19-70.116-26.19-113.906 0-43.791 8.6-81.76 25.81-113.907 17.22-32.146 41.01-56.953 71.39-74.418 30.37-17.466 65.43-26.199 105.17-26.199 22.27 0 44.68 3.417 67.2 10.252 22.79 6.834 43.54 18.984 62.27 36.45 18.99 17.212 34.3 41.133 45.95 71.761 11.64 30.375 17.46 68.976 17.46 115.804h-334.88v-59.61h251.35l-14.43 21.642c-1.52-30.628-6.83-55.182-15.95-73.66-8.85-18.731-20.37-32.273-34.55-40.626-13.92-8.606-29.49-12.91-46.7-12.91-21.77 0-40.12 5.949-55.05 17.846-14.94 11.643-26.33 28.476-34.18 50.498-7.59 21.769-11.39 47.588-11.39 77.456 0 44.55 8.74 79.482 26.2 104.794 17.47 25.06 43.29 37.589 77.46 37.589 23.29 0 43.16-5.948 59.61-17.845 16.45-11.897 28.73-29.616 36.83-53.156l87.33 24.3c-9.87 26.578-23.92 48.6-42.15 66.065-18.22 17.466-39.49 30.628-63.79 39.488-24.3 8.606-49.99 12.909-77.07 12.909ZM27.956 1448v-228.1h77.3c40.233 0 67.161 24.4 67.161 57.03 0 23.12-12.355 40.55-33.897 49.74 25.344 7.28 41.184 28.51 41.184 55.12 0 39.92-30.096 66.21-75.399 66.21H27.956Zm74.449-29.46c25.977 0 42.134-14.58 42.134-37.38 0-23.45-15.84-37.39-41.501-37.39H60.904v74.77h41.501Zm0-102.96c21.859 0 35.798-12.99 35.798-33.58 0-19.96-13.939-32.63-36.115-32.63H60.904v66.21h41.501Zm120.148 195.78 28.512-65.89-66.211-155.87h34.848l47.203 120.38 44.669-120.38h34.848l-89.654 221.76h-34.215Z"/><g clip-path="url(#a)"><path fill="#2DB1FF" d="m561.039 1465.55 49.154-60.44c5.132-6.31 14.794-6.31 19.926 0l49.154 60.44a12.762 12.762 0 0 1 0 16.12l-49.154 60.44c-5.132 6.31-14.794 6.31-19.926 0l-49.154-60.44a12.762 12.762 0 0 1 0-16.12Z" opacity=".62"/><path fill="#2DB1FF" d="m637.944 1317.78 49.153-60.43c5.132-6.31 14.794-6.31 19.927 0l49.153 60.43a12.774 12.774 0 0 1 0 16.13l-49.153 60.43c-5.133 6.31-14.795 6.31-19.927 0l-49.153-60.43a12.774 12.774 0 0 1 0-16.13Zm-153.076 0 49.153-60.43c5.133-6.31 14.794-6.31 19.926 0l49.154 60.43a12.774 12.774 0 0 1 0 16.13l-49.154 60.43c-5.132 6.31-14.793 6.31-19.926 0l-49.153-60.43a12.774 12.774 0 0 1 0-16.13Zm76.171-94.47 49.154-60.45c5.132-6.31 14.794-6.31 19.926 0l49.154 60.44a12.776 12.776 0 0 1 0 16.13l-49.154 60.43c-5.132 6.31-14.794 6.31-19.926 0l-49.154-60.43a12.762 12.762 0 0 1 0-16.12Z"/><path fill="#fff" d="m2347.94 1354.55 70.52 76.35h-42.75l-56.65-65.8v65.8h-31.64v-205.45h31.64v119.39l55.53-66.91h43.87l-70.52 76.62Zm-132.87-54.4c4.63-7.77 10.73-13.79 18.32-18.05 7.78-4.44 16.93-6.66 27.48-6.66v32.76h-8.05c-12.39 0-21.84 3.15-28.32 9.44-6.28 6.29-9.43 17.22-9.43 32.76v80.52h-31.65v-152.98h31.65v22.21Zm-140.33 133.26c-14.44 0-27.48-3.23-39.14-9.71-11.67-6.67-20.82-15.92-27.49-27.77-6.66-12.03-10-25.91-10-41.64 0-15.55 3.43-29.34 10.28-41.37 6.85-12.03 16.19-21.28 28.04-27.76 11.85-6.48 25.08-9.72 39.7-9.72 14.62 0 27.86 3.24 39.7 9.72 11.85 6.48 21.2 15.73 28.05 27.76 6.84 12.03 10.27 25.82 10.27 41.37 0 15.55-3.52 29.34-10.55 41.37-7.04 12.03-16.66 21.37-28.88 28.04-12.03 6.48-25.36 9.71-39.98 9.71Zm0-27.48c8.15 0 15.74-1.94 22.77-5.83 7.22-3.89 13.05-9.72 17.49-17.49 4.44-7.78 6.67-17.22 6.67-28.32 0-11.11-2.14-20.45-6.39-28.04-4.26-7.78-9.9-13.61-16.94-17.49-7.03-3.89-14.62-5.83-22.76-5.83-8.14 0-15.74 1.94-22.77 5.83-6.84 3.88-12.31 9.71-16.38 17.49-4.07 7.59-6.11 16.93-6.11 28.04 0 16.47 4.16 29.24 12.5 38.31 8.51 8.89 19.15 13.33 31.92 13.33Zm-87.51-127.98-47.47 152.97h-33.32l-30.81-113-30.82 113h-33.32l-47.75-152.97h32.2l31.93 122.99 32.49-122.99h33.03l31.1 122.43 31.65-122.43h31.09Zm-269.46 25.77v84.67c0 5.74 1.29 9.91 3.88 12.5 2.78 2.4 7.4 3.61 13.88 3.61h19.44v26.37h-24.99c-14.25 0-25.18-3.33-32.76-9.99-7.59-6.67-11.38-17.49-11.38-32.49v-84.67h-18.05v-25.82h18.05v-38.04h31.93v38.04h37.2v25.82h-37.2Zm-65.48 46.96c0 5.74-.38 10.92-1.12 15.55h-116.88c.93 12.21 5.46 22.02 13.61 29.43 8.14 7.4 18.13 11.1 29.98 11.1 17.03 0 29.06-7.12 36.09-21.38h34.15c-4.62 14.07-13.05 25.64-25.26 34.71-12.03 8.88-27.03 13.32-44.98 13.32-14.62 0-27.76-3.23-39.43-9.71-11.47-6.67-20.54-15.92-27.2-27.77-6.48-12.03-9.72-25.91-9.72-41.64s3.15-29.52 9.44-41.37c6.48-12.03 15.46-21.28 26.93-27.76 11.66-6.48 24.98-9.72 39.98-9.72 14.44 0 27.3 3.15 38.59 9.44 11.29 6.29 20.08 15.18 26.38 26.65 6.29 11.29 9.44 24.34 9.44 39.15Zm-33.05-9.99c-.17-11.67-4.34-21.01-12.49-28.05-8.14-7.03-18.22-10.55-30.26-10.55-10.92 0-20.27 3.52-28.04 10.55-7.78 6.85-12.4 16.2-13.88 28.05h84.67Zm-207.52-65.25c12.03 0 22.77 2.5 32.2 7.5 9.63 4.99 17.13 12.4 22.5 22.21 5.37 9.81 8.05 21.65 8.05 35.54v90.23h-31.38v-85.52c0-13.69-3.42-24.15-10.27-31.37-6.84-7.4-16.19-11.1-28.04-11.1-11.85 0-21.28 3.7-28.32 11.1-6.84 7.22-10.27 17.68-10.27 31.37v85.52h-31.65v-152.98h31.65v17.49c5.18-6.29 11.75-11.2 19.72-14.71 8.14-3.52 16.74-5.28 25.81-5.28Z"/><path fill="#2DB1FF" d="M1287.42 1432.86c-5.73 0-10.55-1.94-14.43-5.83-3.89-3.89-5.83-8.7-5.83-14.44s1.94-10.55 5.83-14.44c3.88-3.88 8.7-5.83 14.43-5.83 5.56 0 10.27 1.95 14.16 5.83 3.89 3.89 5.83 8.7 5.83 14.44s-1.94 10.55-5.83 14.44c-3.89 3.89-8.6 5.83-14.16 5.83Z"/><path fill="#fff" d="m1206.64 1402.6 43.31-124.65h33.6l-58.31 152.97h-37.75l-58.03-152.97h33.87l43.31 124.65Zm-149.55 30.81c-12.04 0-22.86-2.12-32.49-6.38-9.44-4.44-16.93-10.37-22.49-17.77-5.548-7.59-8.509-16.01-8.88-25.26h32.76c.56 6.47 3.61 11.93 9.16 16.38 5.74 4.25 12.87 6.38 21.38 6.38 8.88 0 15.73-1.66 20.55-5 4.99-3.51 7.49-7.95 7.49-13.32 0-5.74-2.77-10-8.33-12.77-5.36-2.78-13.97-5.83-25.82-9.16-11.47-3.15-20.82-6.21-28.04-9.17-7.22-2.96-13.51-7.49-18.88-13.6-5.18-6.11-7.771-14.16-7.771-24.15 0-8.15 2.406-15.55 7.221-22.22 4.81-6.84 11.66-12.21 20.54-16.1 9.07-3.89 19.44-5.83 31.1-5.83 17.4 0 31.37 4.44 41.92 13.33 10.73 8.7 16.47 20.64 17.21 35.81h-31.65c-.55-6.85-3.33-12.31-8.33-16.38-4.99-4.07-11.75-6.11-20.26-6.11-8.33 0-14.72 1.58-19.16 4.72-4.44 3.15-6.66 7.31-6.66 12.5 0 4.07 1.48 7.49 4.44 10.27 2.96 2.78 6.57 5 10.83 6.66 4.25 1.48 10.55 3.43 18.88 5.83 11.1 2.96 20.17 6.02 27.2 9.17 7.22 2.96 13.42 7.4 18.6 13.32 5.19 5.92 7.87 13.79 8.06 23.6 0 8.7-2.41 16.47-7.22 23.32-4.81 6.85-11.66 12.22-20.55 16.1-8.7 3.89-18.97 5.83-30.81 5.83Zm-145.756 0c-12.03 0-22.858-2.12-32.483-6.38-9.439-4.44-16.936-10.37-22.488-17.77-5.553-7.59-8.514-16.01-8.884-25.26h32.76c.555 6.47 3.609 11.93 9.162 16.38 5.738 4.25 12.864 6.38 21.378 6.38 8.884 0 15.733-1.66 20.545-5 4.997-3.51 7.496-7.95 7.496-13.32 0-5.74-2.777-10-8.329-12.77-5.368-2.78-13.974-5.83-25.82-9.16-11.476-3.15-20.823-6.21-28.041-9.17s-13.511-7.49-18.879-13.6c-5.183-6.11-7.774-14.16-7.774-24.15 0-8.15 2.406-15.55 7.219-22.22 4.812-6.84 11.66-12.21 20.544-16.1 9.07-3.89 19.434-5.83 31.095-5.83 17.399 0 31.373 4.44 41.923 13.33 10.735 8.7 16.473 20.64 17.213 35.81h-31.65c-.555-6.85-3.332-12.31-8.329-16.38-4.997-4.07-11.753-6.11-20.267-6.11-8.33 0-14.715 1.58-19.157 4.72-4.442 3.15-6.663 7.31-6.663 12.5 0 4.07 1.48 7.49 4.442 10.27 2.961 2.78 6.571 5 10.827 6.66 4.258 1.48 10.551 3.43 18.88 5.83 11.105 2.96 20.175 6.02 27.208 9.17 7.218 2.96 13.419 7.4 18.601 13.32 5.183 5.92 7.867 13.79 8.051 23.6 0 8.7-2.405 16.47-7.217 23.32-4.813 6.85-11.661 12.22-20.545 16.1-8.7 3.89-18.972 5.83-30.818 5.83Z"/></g><defs><clipPath id="a"><path fill="#fff" d="M482 1158.13h1936.22v388.74H482z"/></clipPath></defs></svg>